<?xml version='1.0' encoding='utf-8'?>
<svg xmlns="http://www.w3.org/2000/svg" version="1.1" width="600px" height="976px" viewBox="0 0 600 976"> <g id="layer1"> <g style="fill:rgb(0,0,0); fill-opacity:1.0; stroke-linejoin: miter"> <path d="M311.1583,494.74234C311.20236,494.74234,311.21906,494.74783,311.1964,494.75537C311.1811,494.75842,311.15967,494.75998,311.13745,494.75998C311.11526,494.75998,311.0923,494.75842,311.07394,494.75537C311.03412,494.74927,311.05862,494.74313,311.12598,494.74313C311.13794,494.74258,311.14877,494.74234,311.1583,494.74234 Z M310.79877,494.7364C310.8242,494.7364,310.83655,494.74435,310.82596,494.75232C310.82062,494.75766,310.80908,494.76093,310.79614,494.76093C310.7868,494.76093,310.77676,494.75922,310.76776,494.75537C310.7433,494.7462,310.75247,494.737,310.78613,494.737C310.79065,494.7366,310.79486,494.7364,310.79877,494.7364 Z M310.89063,495.04254C310.91605,495.04254,310.9284,495.0505,310.9178,495.05847C310.91245,495.0638,310.9009,495.06708,310.88797,495.06708C310.87866,495.06708,310.8686,495.06537,310.85962,495.06152C310.83514,495.05234,310.8443,495.04315,310.878,495.04315C310.8825,495.04276,310.88672,495.04254,310.89063,495.04254 Z M311.11066,495.35544C311.18723,495.35544,311.21783,495.36157,311.1811,495.36768C311.1612,495.37073,311.13593,495.37228,311.11105,495.37228C311.08618,495.37228,311.06168,495.37073,311.0433,495.36768C311.0035,495.36157,311.03412,495.35544,311.11066,495.35544 Z M326.30353,497.29453C326.3165,497.29453,326.32672,497.31845,326.32672,497.36996C326.32672,497.40363,326.342,497.45874,326.36038,497.49243C326.38794,497.54446,326.3757,497.55978,326.28384,497.59653C326.2161,497.62537,326.17615,497.63992,326.1596,497.63992C326.141,497.63992,326.15186,497.62155,326.18588,497.5843C326.2165,497.5506,326.2471,497.46793,326.2563,497.40057C326.2665,497.33234,326.2872,497.29453,326.30353,497.29453 Z M326.0779,497.64246L326.0779,497.64246C326.11545,497.6427,326.11447,497.64926,326.06342,497.6853C326.03326,497.70682,326.0112,497.7176,325.99976,497.7176C325.98672,497.7176,325.98734,497.70377,326.00525,497.67612C326.0143,497.65796,326.0473,497.64282,326.07465,497.64246 Z M324.96378,498.0232C325.0224,498.0232,325.08875,498.04547,325.1266,498.0833C325.16025,498.117,325.14188,498.14148,325.0225,498.22107C324.94287,498.27313,324.86633,498.31598,324.85104,498.31598C324.8388,498.31598,324.82654,498.26086,324.82654,498.19354C324.82654,498.11392,324.8449,498.06494,324.88165,498.04352C324.90305,498.0296,324.93228,498.0232,324.96378,498.0232 Z M322.25482,493.14194L322.32523,493.18478C322.36197,493.21234,322.4477,493.25214,322.51505,493.27356C322.5824,493.29807,322.69263,493.35318,322.75693,493.3991C322.82428,493.445,322.9192,493.4787,322.9743,493.4787C323.05695,493.4787,323.08145,493.49402,323.11206,493.57056C323.13348,493.6226,323.20084,493.71445,323.2621,493.7818C323.48865,494.0206,323.74582,494.35736,323.85602,494.5533C323.91727,494.66354,323.99686,494.77988,324.03052,494.8105C324.07034,494.84418,324.09177,494.9054,324.09177,494.9697C324.09177,495.034,324.1438,495.18094,324.22647,495.34015C324.29996,495.4871,324.39792,495.70142,324.44385,495.8208C324.57855,496.17902,324.6061,496.22495,324.69797,496.2586C324.86942,496.31677,324.90308,496.6964,324.76837,496.9995C324.6857,497.18933,324.6551,497.43427,324.70407,497.5506C324.73468,497.621,324.73468,497.6547,324.70715,497.68225C324.68878,497.70062,324.67346,497.73428,324.67346,497.7588C324.67346,497.78326,324.6459,497.83533,324.6153,497.87512C324.56323,497.93942,324.55713,497.98535,324.57245,498.1568L324.58774,498.3619L324.42548,498.44153C323.88052,498.6987,323.13962,499.09668,323.07227,499.1671C323.0294,499.21304,322.9896,499.28345,322.98346,499.32632C322.98276,499.33118,322.98212,499.33353,322.9815,499.33353C322.9767,499.33353,322.9743,499.1904,322.9743,498.98953L322.9743,498.57623L323.05084,498.56705C323.0937,498.5609,323.1488,498.53644,323.17636,498.51193C323.27127,498.4262,323.2682,498.30374,323.1549,497.91187C322.89163,496.98114,322.58853,495.67386,322.49976,495.08908C322.48444,494.99112,322.45074,494.80435,322.42627,494.67578C322.40176,494.54718,322.36502,494.30533,322.3436,494.13693C322.32523,493.96857,322.29767,493.75424,322.28543,493.66238C322.2701,493.57056,322.25787,493.4144,322.25787,493.31644L322.25482,493.14194 Z M316.93314,486.07242C316.90747,486.07242,316.87143,486.0941,316.8144,486.14008C316.76846,486.1799,316.6858,486.23807,316.6307,486.26868C316.4715,486.3636,316.4409,486.47073,316.51434,486.6973C316.52966,486.74628,316.48068,486.81363,316.30005,487.0004C316.17453,487.1351,316.07043,487.26675,316.07043,487.2943C316.07043,487.32492,316.049,487.3984,316.0245,487.45657C316.0,487.5178,315.97858,487.60046,315.97858,487.64026C315.97858,487.68005,315.94183,487.75354,315.8959,487.80252C315.85,487.8515,315.752,487.96478,315.67856,488.0536C315.52853,488.24033,315.52853,488.30463,315.6816,488.39954C315.76733,488.44852,315.77957,488.47607,315.77957,488.5863C315.77957,488.70877,315.7857,488.71796,315.92654,488.78836L316.0735,488.8649L315.96634,488.92612C315.86224,488.98737,315.8592,488.99347,315.84082,489.2384C315.82855,489.3762,315.8255,489.51395,315.82855,489.54456C315.8561,489.6762,316.01837,489.73132,316.71948,489.8507C316.84195,489.86908,316.95828,489.98544,316.95828,490.08646C316.95828,490.12015,317.02872,490.2181,317.11136,490.3069C317.23996,490.44467,317.25833,490.47528,317.2216,490.50592C317.19708,490.52734,317.16034,490.61612,317.14197,490.70184C317.12363,490.78757,317.07156,490.92227,317.02563,490.9988C316.9797,491.07535,316.93073,491.16107,316.91235,491.18863C316.89706,491.21924,316.84195,491.29578,316.79602,491.36008C316.68887,491.51315,316.48068,492.11935,316.45313,492.3704C316.4378,492.50818,316.447,492.62146,316.48373,492.77148L316.5358,492.98273L316.45618,493.1052C316.41333,493.17255,316.36435,493.23682,316.34598,493.24908C316.33066,493.25827,316.31537,493.30725,316.31537,493.35623C316.31537,493.41748,316.297,493.45114,316.25717,493.46338C316.19595,493.48175,315.97858,493.84302,315.97858,493.9226C315.97858,494.00528,315.7245,494.29614,315.63263,494.31757C315.5867,494.32675,315.5163,494.36655,315.47955,494.40637C315.40607,494.48596,315.19788,494.538,314.77844,494.57782C314.61923,494.59616,314.49066,494.62985,314.37433,494.68802C314.278,494.73715,314.23093,494.75726,314.17957,494.75726C314.15094,494.75726,314.12097,494.751,314.0804,494.74005C314.04306,494.7311,313.94778,494.72723,313.8242,494.72723C313.4412,494.72723,312.78647,494.76428,312.7425,494.8013C312.72107,494.81967,312.7027,494.85028,312.7027,494.8717C312.7027,494.89575,312.6908,494.90677,312.6707,494.90677C312.61658,494.90677,312.5031,494.82693,312.40265,494.7064C312.32306,494.61148,312.16385,494.44617,312.04446,494.33594C311.9281,494.2257,311.77197,494.07877,311.70462,494.00528C311.61942,493.92007,311.56363,493.88022,311.51938,493.88022C311.49368,493.88022,311.4719,493.89368,311.4505,493.91956C311.38928,493.99304,311.46277,494.18286,311.61584,494.3635C311.69238,494.45227,311.7536,494.5288,311.7536,494.5319C311.7536,494.53217,311.75278,494.5323,311.75116,494.5323C311.73404,494.5323,311.62854,494.5178,311.50256,494.4982C311.36172,494.4737,311.14435,494.44922,311.01883,494.44003C310.9674,494.437,310.92645,494.43512,310.8916,494.43512C310.7854,494.43512,310.73608,494.4528,310.62082,494.51044C310.48303,494.58087,310.45242,494.61148,310.45242,494.67273C310.45242,494.74005,310.46774,494.75232,310.5902,494.76456L310.72797,494.77988L310.57184,494.81967C310.33914,494.8809,310.22894,495.00336,310.32077,495.0952C310.34833,495.12277,310.34528,495.1442,310.30548,495.18707C310.18158,495.32474,310.2607,495.398,310.5295,495.398C310.55963,495.398,310.5921,495.3971,310.62695,495.39523C310.6902,495.3925,310.738,495.391,310.7662,495.391C310.8008,495.391,310.80594,495.39325,310.7739,495.39832C310.6606,495.4136,310.5596,495.48404,310.5596,495.5483C310.5596,495.6474,310.6761,495.67712,311.0649,495.67712C311.08456,495.67712,311.10492,495.67706,311.12598,495.6769C311.1557,495.6766,311.18423,495.67645,311.21173,495.67645C311.47034,495.67645,311.6348,495.6899,311.7842,495.7259C311.89697,495.75153,311.96777,495.7638,312.05835,495.7638C312.1301,495.7638,312.21423,495.7561,312.34143,495.7412C312.46652,495.72815,312.5638,495.72128,312.63724,495.72128C312.77045,495.72128,312.82516,495.7439,312.82516,495.79324C312.82516,495.8851,313.01498,496.2984,313.07315,496.32904C313.0898,496.33737,313.1134,496.34152,313.14667,496.34152C313.19894,496.34152,313.27502,496.33124,313.38544,496.31067C313.91507,496.21268,313.98242,496.20044,314.27942,496.1545C314.92538,496.0596,315.20706,496.0229,315.4275,496.0045C315.74283,495.98,316.33374,495.87286,316.48373,495.8116C316.56027,495.781,316.73785,495.63098,316.95215,495.41974L317.29813,495.0799L317.35934,495.1993C317.39304,495.26666,317.44815,495.36462,317.47876,495.4228C317.5706,495.58813,317.59814,495.8208,317.57977,496.32596C317.5706,496.59232,317.57672,496.89847,317.5951,497.02402C317.6196,497.20465,317.61652,497.37915,317.56448,497.89655C317.491,498.6895,317.50018,499.47327,317.5859,499.68756C317.64407,499.83148,317.7604,499.93863,317.8584,499.93863C317.99005,499.93863,318.00534,499.97537,317.95023,500.1713C317.82166,500.6428,317.7206,501.0714,317.70532,501.2245C317.69305,501.31635,317.6655,501.4143,317.64407,501.43878C317.62265,501.4633,317.589,501.53983,317.57367,501.60718C317.5553,501.67453,317.50632,501.85825,317.46344,502.01437C317.42365,502.17053,317.37466,502.41544,317.3563,502.55627C317.33487,502.72467,317.25833,503.00632,317.12668,503.38596L316.92767,503.9646L316.92767,504.3473C316.92767,504.55853,316.9491,504.86777,316.9736,505.03616C317.00116,505.20453,317.03482,505.4464,317.0532,505.57193C317.0685,505.69745,317.1083,505.94543,317.14197,506.12302C317.17566,506.3006,317.22464,506.79657,317.24915,507.2252C317.2767,507.6538,317.3165,508.12836,317.34097,508.28143C317.36243,508.43146,317.40222,508.70087,317.42978,508.87845C317.49713,509.33154,317.58286,509.65915,317.67468,509.7969C317.71756,509.86426,317.77573,510.00204,317.80634,510.10306C317.86145,510.30206,317.8584,510.3235,317.74207,510.65414C317.7145,510.73068,317.68695,510.82867,317.67776,510.87457C317.65634,510.9848,317.48486,511.09808,317.20627,511.18686C317.15594,511.20236,317.1078,511.21838,317.06824,511.23267L317.06506,511.23267Q316.89584,511.23883,316.7556,511.24252Q316.60434,511.24753,316.43484,511.24753Q316.43048,511.24753,316.4261,511.24753L316.42294,511.24753C316.41483,511.23865,316.39822,511.23584,316.37045,511.23584C316.34726,511.23584,316.31265,511.24,316.27692,511.2465L316.27692,511.2465Q316.17105,511.24515,316.05872,511.242Q316.00424,511.24216,315.95496,511.2489Q315.83798,511.2629,315.6988,511.36746Q315.59222,511.4505,315.58594,511.53717Q315.5763,511.77557,316.37354,511.95584Q317.46237,512.19324,318.76276,512.2716Q318.9829,512.2833,319.16595,512.2833Q319.18506,512.2833,319.2038,512.2832L319.20697,512.2832C319.218,512.2841,319.22876,512.28503,319.23917,512.28595C319.63943,512.3161,319.84,512.3307,319.94858,512.3307C320.03848,512.3307,320.0653,512.3207,320.09027,512.3013C320.176,512.237,320.20663,512.01044,320.20355,511.42874C320.20355,510.90213,320.17294,510.55313,320.11172,510.39087C320.0352,510.19186,319.9525,509.85815,319.928,509.65915C319.79944,508.61514,319.70453,508.08548,319.62186,507.94464C319.58206,507.87424,319.55756,507.7273,319.53003,507.34766C319.51166,507.06903,319.4749,506.67715,319.44736,506.4751C319.42285,506.27304,319.39224,505.91483,319.38,505.67908C319.36774,505.42804,319.3402,505.21985,319.31876,505.177C319.22693,505.01166,319.2208,504.92288,319.2912,504.7759C319.32794,504.69937,319.3953,504.58304,319.44122,504.5157C319.5545,504.3412,319.6678,504.1238,319.778,503.85745C319.87598,503.61865,319.90964,503.5421,320.0321,503.27576L320.1056,503.1196L320.2342,503.41965C320.30765,503.58496,320.42706,503.85132,320.50055,504.01053C320.574,504.16974,320.6475,504.32892,320.6628,504.3626C320.68115,504.3963,320.75464,504.57385,320.82813,504.7545C320.90466,504.93512,321.03326,505.19537,321.11285,505.33313C321.34247,505.72195,321.48022,505.81378,322.66812,506.36795C322.80283,506.42917,323.01715,506.5302,323.14267,506.59143C323.39066,506.70776,324.01218,506.9833,324.50507,507.19763C325.29803,507.54053,327.03394,508.45593,327.32172,508.67944C327.50848,508.82333,327.6034,508.87845,327.67688,508.87845C327.74423,508.87845,327.74423,508.87845,327.72278,509.3438L327.70135,509.80914L327.5789,510.05408C327.4197,510.36942,327.38602,510.6113,327.4901,510.70926C327.54596,510.7599,327.59088,510.78464,327.6453,510.78464C327.6863,510.78464,327.7327,510.77057,327.7932,510.74295C328.01978,510.6419,328.3504,510.28677,328.67496,509.7969C328.88312,509.48462,328.93213,509.36523,329.09744,508.7529C329.17706,508.45898,329.25665,508.1957,329.2689,508.16815C329.28726,508.13754,329.34238,508.11304,329.40668,508.10693C329.51688,508.09772,329.51996,508.09467,329.68832,507.73035C329.8108,507.464,329.85977,507.31396,329.872,507.18845L329.88428,507.017L329.72202,506.93433C329.6332,506.88843,329.54138,506.83023,329.51688,506.8088C329.4373,506.72614,329.2842,506.66492,328.71475,506.48428C328.2494,506.33426,328.081,506.29446,327.77484,506.26385C327.41357,506.2271,327.40134,506.22406,327.2605,506.11078C327.1258,506.00055,326.77063,505.8291,326.48593,505.74033C326.41245,505.71887,326.3114,505.66684,326.2563,505.62396C326.2012,505.58417,325.96545,505.4525,325.72665,505.33618C325.4909,505.2168,325.27048,505.10657,325.2368,505.0882C325.20618,505.06982,325.12964,505.03308,325.07147,505.0086C325.0133,504.9841,324.82654,504.90146,324.65814,504.82797C324.29996,504.6718,323.97543,504.5616,323.85907,504.5616C323.804,504.5616,323.74274,504.52182,323.6662,504.43915C323.58047,504.34424,323.5223,504.31055,323.42126,504.29218C323.29575,504.27075,323.27737,504.25546,323.1488,504.0442L323.01102,503.81458L323.04776,503.53598C323.07532,503.33698,323.07532,503.19922,323.0539,503.05838C323.03552,502.95123,323.00797,502.6757,322.9896,502.44913C322.97122,502.22256,322.93756,501.86435,322.91,501.6531C322.83957,501.10815,322.84875,499.99985,322.92224,499.81616C322.93817,499.77994,322.9466,499.76086,322.95102,499.76086C322.95593,499.76086,322.95593,499.78452,322.95593,499.83453C322.95898,499.9723,323.158,500.62442,323.27737,500.88773C323.3325,501.01324,323.44577,501.27347,323.52536,501.4633C323.60498,501.6531,323.84073,502.0909,324.0489,502.43994C324.43466,503.08594,324.48978,503.1502,324.73163,503.2482C324.7526,503.2566,324.771,503.2631,324.79727,503.2631C324.9244,503.2631,325.23654,503.1109,326.92374,502.2838C328.9658,501.2796,329.63934,500.93365,329.72812,500.8479C329.88733,500.69177,329.8812,500.67035,329.2444,499.0814C329.0515,498.6007,328.85864,498.11087,328.8158,497.9945C328.66577,497.57816,328.36877,496.9352,328.28308,496.84338C328.2434,496.79987,328.23047,496.7724,328.19305,496.7724C328.141,496.7724,328.0415,496.8256,327.75647,496.96277C327.60645,497.0332,327.45645,497.0883,327.4197,497.0883C327.41904,497.08826,327.4183,497.08826,327.41754,497.08826C327.33716,497.08826,326.85495,497.24823,326.70328,497.3271C326.6624,497.34982,326.62323,497.36243,326.6007,497.36243C326.59286,497.36243,326.58707,497.3609,326.5839,497.35773C326.57166,497.34854,326.55634,497.26587,326.54715,497.1771C326.53152,496.9947,326.50702,496.94315,326.40192,496.94315C326.3835,496.94315,326.36267,496.94473,326.33896,496.94745L326.2104,496.95972L326.1461,496.79132C326.10934,496.69946,326.0328,496.55865,325.9777,496.48212C325.87054,496.33514,325.7144,496.0443,325.7144,495.99225C325.7144,495.97388,325.794,495.90652,325.89197,495.84222C326.0726,495.7167,326.26547,495.50546,326.26547,495.42892C326.26547,495.4075,326.22876,495.35544,326.18588,495.3126C326.143,495.27277,326.0726,495.17786,326.02667,495.10132C325.98383,495.02478,325.93176,494.94214,325.91034,494.91763C325.88892,494.89313,325.78787,494.70944,325.68378,494.5074C325.58276,494.30838,325.41132,494.0114,325.30414,493.84915C325.197,493.6869,325.00412,493.3409,324.87552,493.0807C324.5816,492.48367,324.51425,492.38876,324.303,492.26324C324.2081,492.20813,324.0642,492.10098,323.98767,492.02444C323.90808,491.95096,323.78867,491.85913,323.7213,491.8285C323.5958,491.76727,323.20697,491.50092,323.03857,491.36316C322.98654,491.31723,322.91,491.2713,322.86713,491.25906C322.82428,491.2468,322.74774,491.20395,322.69568,491.16415C322.64365,491.12433,322.59158,491.09067,322.57935,491.09067C322.57016,491.09067,322.4875,491.0325,322.39566,490.959C322.30685,490.8886,322.21194,490.81512,322.18134,490.7998C322.15378,490.78143,322.08948,490.65286,322.0405,490.50897C321.85068,489.96707,321.45575,489.55682,321.04242,489.4711C320.99344,489.4619,320.9179,489.45715,320.80722,489.45715C320.58588,489.45715,320.22394,489.4762,319.65247,489.51703C319.57703,489.52237,319.52347,489.52612,319.48096,489.52612C319.3768,489.52612,319.339,489.50345,319.20856,489.42517C318.9024,489.24454,318.8779,489.21085,318.94525,489.07614C318.9575,489.04858,318.99423,488.95367,319.0218,488.87103C319.0769,488.71182,319.2606,488.21585,319.33102,488.02908C319.38306,487.9005,319.36163,487.36166,319.30038,487.21777C319.27896,487.1657,319.24835,487.08307,319.22998,487.03406C319.1504,486.7861,318.8871,486.5228,318.66357,486.46768C318.45233,486.4187,318.2013,486.33603,318.1707,486.30847C318.1523,486.29623,318.05432,486.284,317.94717,486.284C317.84003,486.284,317.7543,486.27173,317.7543,486.2534C317.7543,486.23734,317.74728,486.2283,317.73737,486.2283C317.7359,486.2283,317.7344,486.2285,317.73285,486.22888C317.73056,486.2298,317.72745,486.23022,317.72366,486.23022C317.70193,486.23022,317.65726,486.21603,317.6104,486.1952C317.57306,486.17975,317.54764,486.17133,317.52362,486.17133C317.49057,486.17133,317.46027,486.1873,317.40527,486.22275L317.29507,486.28705L317.19403,486.2105C317.13586,486.16766,317.0685,486.13092,317.04095,486.13092C317.0134,486.13092,316.9828,486.1156,316.9736,486.10028C316.96262,486.08197,316.95016,486.07242,316.93314,486.07242 Z"/> </g> </g> </svg>