<svg class="icon" style="width: 1em; height: 1em;vertical-align: middle;fill: currentColor;overflow: hidden;" viewBox="0 0 1024 1024" version="1.1" xmlns="http://www.w3.org/2000/svg"><path d="M866.34496 467.02592l0-80.6912c0-44.70784-37.0688-81.1008-82.6368-81.1008l-117.61664 0 0-49.90976c0-23.20384-19.23072-42.0864-42.88512-42.0864L414.94528 213.23776c-23.6544 0-42.88512 18.88256-42.88512 42.0864l0 49.90976-119.3984 0c-45.568 0-82.6368 36.37248-82.6368 81.1008l0 274.86208c0 0.02048 0 0.02048 0 0.04096l0 85.31968c0 44.70784 37.0688 81.1008 82.6368 81.1008l531.02592 0c45.568 0 82.6368-36.37248 82.6368-81.1008L866.32448 467.06688C866.34496 467.0464 866.34496 467.0464 866.34496 467.02592L866.34496 467.02592zM418.46784 258.7648l201.216 0 0 46.46912-201.216 0L418.46784 258.7648 418.46784 258.7648zM216.41216 386.33472c0-19.61984 16.26112-35.57376 36.2496-35.57376L637.3376 350.76096c1.78176 0.43008 3.62496 0.65536 5.55008 0.65536s3.76832-0.22528 5.5296-0.65536l135.2704 0c19.98848 0 36.2496 15.95392 36.2496 35.57376l0 54.45632c-0.512 0.2048-1.04448 0.4096-1.55648 0.63488-93.184 42.92608-191.24224 57.2416-277.34016 58.40896l0-15.38048c0-12.57472-10.38336-22.77376-23.20384-22.77376-12.82048 0-23.20384 10.19904-23.20384 22.77376l0 14.78656c-29.24544-1.14688-56.5248-3.62496-81.08032-6.73792-110.32576-13.96736-189.97248-42.98752-197.14048-45.6704l0-2.99008L216.41216 386.33472 216.41216 386.33472 216.41216 386.33472zM819.93728 746.53696c0 19.61984-16.26112 35.57376-36.2496 35.57376L252.66176 782.11072c-19.98848 0-36.2496-15.95392-36.2496-35.57376L216.41216 495.16544c30.84288 10.26048 100.06528 30.84288 189.91104 42.31168 29.81888 3.80928 59.2896 6.26688 88.30976 7.39328l0 30.84288c0 12.57472 10.38336 22.77376 23.20384 22.77376s23.20384-10.19904 23.20384-22.77376l0-30.208c23.8592-0.28672 47.34976-1.49504 70.3488-3.6864 74.83392-7.08608 144.87552-24.28928 208.54784-51.17952l0 193.76128L819.93728 746.53696 819.93728 746.53696 819.93728 746.53696z" /></svg>